<svg width="51" height="51" viewBox="0 0 51 51" fill="none" xmlns="http://www.w3.org/2000/svg">
<g clip-path="url(#clip0_220_1025)">
<path d="M26.3689 0.665059C32.3337 0.665059 38.2984 0.665059 44.2628 0.665059C44.7242 0.665059 45.1855 0.64958 45.6469 0.644394C48.1206 0.618253 49.7366 2.05512 49.995 4.52399C50.0319 4.87669 50.0325 5.23271 50.0365 5.58727C50.0909 9.52378 50.1351 13.4607 50.1967 17.397C50.2824 22.8618 50.3904 28.3264 50.4707 33.7911C50.5296 37.8118 49.99 41.7909 49.556 45.7747C49.3929 47.2724 48.3651 48.2228 47.1987 49.0289C46.9391 49.2156 46.6521 49.361 46.3478 49.4602C44.6231 49.9757 42.9316 50.5598 41.0712 50.5291C31.0239 50.3608 20.976 50.2266 10.9276 50.1264C9.69078 50.1257 8.45479 50.189 7.22455 50.316C4.62753 50.5558 2.47425 49.7573 0.824479 47.7075C0.347347 47.1239 0.093065 46.3898 0.106988 45.6363C0.153063 41.5218 0.206607 37.4077 0.267624 33.2938C0.366831 27.2612 0.488874 21.229 0.590571 15.1964C0.639136 12.3221 0.536198 9.43856 0.735857 6.57549C0.921195 3.91988 2.39269 2.26016 4.69415 1.64729C6.62308 1.13339 8.56383 1.17441 10.5009 1.11403C15.7885 0.94806 21.0794 0.882099 26.3689 0.77629V0.665059ZM26.2344 14.6288C26.245 14.7079 26.2601 14.7863 26.28 14.8636C27.6963 19.1327 29.1269 23.3973 30.5152 27.6757C30.6862 28.2025 31.0295 28.3726 31.4552 28.5724C34.2809 29.8992 37.0987 31.243 39.9195 32.5801C40.1389 32.6838 40.3624 32.7793 40.5322 32.8554C40.6388 32.816 40.6814 32.8139 40.703 32.7905C42.7162 30.6901 44.7347 28.5948 46.7276 26.4753C46.932 26.238 47.0468 25.9367 47.052 25.6237C47.0312 23.4948 47.0676 21.3583 46.897 19.2394C46.6743 16.0524 46.6657 12.854 46.8712 9.66576C46.9308 8.25252 46.8532 6.83683 46.6396 5.43858C46.4655 4.18692 46.2909 3.93086 45.0913 3.82339C44.5297 3.77318 43.9706 3.6597 43.4102 3.64621C42.168 3.61634 40.923 3.66692 39.6825 3.61297C39.4201 3.60102 39.158 3.64383 38.9129 3.7387C38.668 3.83358 38.4453 3.97847 38.2593 4.16407C34.2778 7.6425 30.285 11.107 26.2335 14.6288H26.2344ZM14.7014 3.6537C13.0964 3.6537 11.5396 3.64762 9.98261 3.65613C9.16717 3.66069 8.34612 3.63544 7.53732 3.71843C4.66178 4.01158 3.29696 5.55351 3.48209 8.65414C3.7438 13.0396 3.82537 17.4414 3.81707 21.8359C3.80918 26.0548 3.58711 30.273 3.46424 34.4915C3.45677 34.7471 3.49475 35.0037 3.5126 35.277L21.2369 23.7297C19.34 16.961 17.0823 10.368 14.7014 3.65268V3.6537ZM22.0563 26.8917C21.905 26.9635 21.8712 26.9757 21.8413 26.9944C15.7774 30.7965 9.7126 34.5969 3.64688 38.3957C3.50886 38.4728 3.39588 38.5878 3.32137 38.7274C3.24686 38.8668 3.21398 39.0245 3.2266 39.1822C3.23241 40.8488 3.16807 42.5183 3.2486 44.1811C3.32581 45.7753 4.23195 46.982 5.57996 47.2413C7.03381 47.5571 8.51357 47.7392 10.0007 47.7851C15.8898 47.8218 21.7792 47.7596 27.6683 47.7301C27.9666 47.7286 28.2646 47.6903 28.6297 47.6645C25.9073 40.866 24.2996 33.8201 22.0563 26.8907V26.8917ZM32.0614 31.7757L31.797 31.9571C33.5873 37.2029 35.3776 42.4488 37.2038 47.8006C39.0412 47.8006 40.8526 47.8679 42.6554 47.7724C43.5721 47.6952 44.4726 47.4851 45.3285 47.1484C46.2716 46.8058 46.9831 46.1266 47.0443 45.0454C47.1363 43.4218 47.1834 41.7967 47.1856 40.1699C47.1856 39.9519 46.8536 39.6633 46.6081 39.5268C45.2766 38.7851 43.9253 38.0795 42.5792 37.3639C39.0737 35.4996 35.5679 33.6365 32.0614 31.7747V31.7757ZM17.3364 3.74953C17.4293 4.04953 17.4858 4.27999 17.5709 4.49949C18.3525 6.51443 19.1756 8.51407 19.9161 10.5435C21.6777 15.3674 23.1667 20.2757 24.5508 25.2224C25.9432 30.199 27.4996 35.1305 29.0381 40.0649C29.8369 42.6272 30.7526 45.1529 31.604 47.6606H33.9146C28.2799 33.2249 24.2907 18.3319 19.2499 3.74953H17.3364ZM25.2871 11.9139L35.2425 3.68582H22.1671C23.2358 6.50345 24.2598 9.20352 25.2871 11.9129V11.9139ZM47.2419 36.4365V29.7457L47.04 29.6809L43.123 34.2606L47.2419 36.4365Z" fill="black"/>
<path d="M37.8881 19.1852C38.1222 19.2775 38.3495 19.3861 38.5682 19.5103C40.585 20.7571 42.5982 22.0099 44.6078 23.2684C45.438 23.7854 45.6333 24.4908 45.1597 25.3431C45.0177 25.5883 44.8521 25.819 44.6651 26.0321C43.7268 27.139 42.7887 28.2462 41.8307 29.3358C41.6003 29.5977 41.2788 29.7769 41.0254 30.0205C40.3527 30.669 39.6348 30.6207 38.8889 30.1846C37.8499 29.5761 36.8143 28.9628 35.782 28.345C35.1143 27.9441 34.4389 27.5527 33.797 27.1132C32.7541 26.3989 32.5212 25.3954 33.2287 24.3713C34.2949 22.828 35.4244 21.3282 36.5368 19.8169C36.6821 19.5975 36.8851 19.4225 37.1235 19.3111C37.362 19.1996 37.6266 19.156 37.8881 19.1852ZM37.8485 21.6083L34.9844 25.1612L39.6469 27.7508L42.5855 24.4228L37.8485 21.6083Z" fill="black"/>
<path d="M15.8127 16.9523C16.2467 17.2191 16.7822 17.4031 17.0985 17.7738C17.6949 18.4719 18.2176 19.2297 18.658 20.0352C18.9531 20.604 19.0395 21.2582 18.9019 21.8841C18.7644 22.5098 18.4117 23.0677 17.9052 23.4602C16.8302 24.266 15.7102 25.0102 14.5506 25.6888C13.3919 26.3637 12.4227 25.9998 11.8781 24.7573C11.4667 23.8193 11.1203 22.8658 10.363 22.1148C9.99128 21.7459 10.0556 21.2554 10.5033 20.7869C10.9521 20.3364 11.4346 19.9209 11.9468 19.5439C12.8442 18.8562 13.755 18.1863 14.6793 17.5342C15.0438 17.3153 15.4224 17.1209 15.8127 16.9523ZM13.7979 23.0461L16.3353 21.4183L15.3391 20.0489L12.74 21.6957L13.7979 23.0461Z" fill="black"/>
<path d="M12.458 34.2688C13.257 34.215 13.751 34.4609 14.0354 34.9341C14.6516 35.9632 15.2968 36.9943 15.7422 38.1005C16.1814 39.1914 15.5405 40.1712 14.7808 40.8327C13.6663 41.7652 12.4731 42.5997 11.2146 43.3264C10.2323 43.9185 9.45045 43.6744 8.85563 42.7086C8.24316 41.7127 7.67511 40.688 7.13196 39.6526C6.6654 38.7632 6.82729 37.9208 7.57798 37.2511C7.98116 36.9044 8.41239 36.5918 8.86727 36.3163C9.7972 35.7304 10.7375 35.1609 11.688 34.608C11.936 34.476 12.1933 34.3627 12.458 34.2688ZM12.3023 37.0903L9.21717 38.7165L10.7595 40.5723L13.1757 39.0001L12.3023 37.0903Z" fill="black"/>
</g>
<defs>
<clipPath id="clip0_220_1025">
<rect width="50.641" height="50" fill="white" transform="translate(0 0.533813)"/>
</clipPath>
</defs>
</svg>
