<svg width="51" height="51" viewBox="0 0 51 51" fill="none" xmlns="http://www.w3.org/2000/svg">
<g clip-path="url(#clip0_220_1016)">
<path d="M47.8148 20.6035C47.2648 20.6137 46.7217 20.6106 46.2856 20.608L45.9959 20.6066L43.2431 15.4527C43.4061 15.2621 43.5768 15.0672 43.7511 14.8676C44.262 14.2835 44.79 13.6793 45.2789 13.0275C45.8945 12.2072 45.8436 11.2576 45.1463 10.5497L45.1019 10.5045C43.3588 8.73392 41.556 6.90308 39.7017 5.18696C39.175 4.69941 38.7101 4.48278 38.2453 4.50278C37.7539 4.52461 37.2675 4.81967 36.7153 5.4307C36.3156 5.87253 35.9294 6.31457 35.5203 6.78274C35.3867 6.93608 35.2513 7.09088 35.1144 7.24721C33.8942 6.01108 32.3656 5.2729 30.2092 4.87576C30.2092 4.75086 30.2117 4.62721 30.2133 4.50476C30.2184 4.10965 30.2233 3.73663 30.2043 3.35541C30.0943 1.15724 29.473 0.555178 27.3132 0.554565H27.2957C25.9435 0.554565 24.5707 0.602308 23.2434 0.648634C22.6119 0.670471 21.9823 0.692676 21.3516 0.709819C20.382 0.73635 19.7871 1.27084 19.6767 2.21472C19.6046 2.83227 19.5574 3.44908 19.5156 3.99337C19.5024 4.16745 19.4897 4.3337 19.4771 4.48921L14.6009 7.2501C14.5009 7.12765 14.3988 7.00131 14.2953 6.87253C13.9586 6.45559 13.6105 6.02414 13.2336 5.60578C12.6948 5.00741 12.1744 4.705 11.6421 4.68174C11.1235 4.66235 10.6008 4.89947 10.0449 5.41784C8.45886 6.89682 6.94556 8.37476 5.54734 9.81067C4.40274 10.9856 4.34813 11.974 5.35279 13.3385C5.7109 13.8242 6.10954 14.2834 6.42976 14.6523C6.52306 14.7599 6.61045 14.8602 6.68948 14.9531L4.51476 20.8103C4.28926 20.8307 4.0603 20.8493 3.82909 20.8681C3.19456 20.9199 2.53846 20.9734 1.886 21.0612C0.69699 21.2208 0.233968 21.7434 0.234375 22.9247C0.234375 25.2042 0.258408 27.1018 0.306687 28.8963C0.324612 29.5638 0.511607 30.0577 0.86279 30.3638C1.22538 30.6802 1.74055 30.7961 2.44007 30.7171C2.83342 30.6732 3.22555 30.622 3.61788 30.5706L3.72075 30.5569C3.72321 30.5793 3.7292 30.6012 3.73847 30.6218L6.19777 35.9877C5.88121 36.231 5.56411 36.4732 5.24648 36.7146C4.89963 36.9791 4.55334 37.244 4.20759 37.5093C3.1954 38.2889 3.00716 39.1777 3.6478 40.1514C4.69768 41.7461 5.93214 43.5883 7.30041 45.2702C8.51162 46.76 9.49406 46.8663 11.1933 45.6951C11.9006 45.2073 12.6044 44.7155 13.3135 44.2189L14.1442 43.6383C15.9942 45.1096 17.8391 45.7812 19.8872 45.7512C19.8684 45.9249 19.8501 46.09 19.8324 46.2489C19.7794 46.7236 19.7336 47.1338 19.7049 47.5526C19.6303 48.6481 19.7776 49.3281 20.1821 49.7595C20.5765 50.1793 21.2198 50.3679 22.2628 50.3679H22.33C23.7437 50.3573 25.1806 50.3324 26.5701 50.3085C27.1437 50.2983 27.7171 50.2887 28.2907 50.2795C29.0907 50.2669 29.6556 50.0659 30.0194 49.6646C30.3832 49.2634 30.5286 48.6798 30.4622 47.8812C30.4174 47.3322 30.3675 46.7836 30.3225 46.2906L30.2817 45.8444L34.5526 44.0426L34.641 44.1634C34.7994 44.3798 34.9608 44.5998 35.1201 44.8212C35.1997 44.9318 35.2773 45.044 35.3549 45.1563C35.4943 45.3577 35.6385 45.5663 35.7939 45.7644C36.559 46.7402 37.4017 46.9471 38.5268 46.4367C38.8973 46.2812 39.2461 46.0771 39.5634 45.8302C39.9276 45.5269 40.2923 45.224 40.6577 44.9216C42.1472 43.6867 43.6874 42.4098 45.151 41.0934C45.8171 40.4942 46.123 39.9926 46.1436 39.4667C46.164 38.9306 45.8788 38.3814 45.2188 37.6865C44.7369 37.1796 44.2506 36.6769 43.8041 36.2155L43.356 35.7514L46.1758 30.3618C46.2905 30.3508 46.4156 30.3391 46.5486 30.3269C46.9937 30.2861 47.5467 30.2344 48.0928 30.1698C49.2574 30.032 49.672 29.651 49.9412 28.4718C50.4894 26.0716 50.0635 23.7291 49.6318 21.9567C49.412 21.0534 48.7826 20.5927 47.8148 20.6035ZM42.9785 28.943C42.3841 31.3471 41.5446 33.0226 40.2562 34.3757C39.7339 34.9242 39.7529 35.6928 40.3084 36.4842C40.8127 37.2028 41.3387 37.9 41.8956 38.6383C42.0934 38.9008 42.2949 39.1677 42.4998 39.442L37.6861 43.2744C37.5521 43.1144 37.4205 42.9565 37.2917 42.8006C36.9133 42.3451 36.556 41.9149 36.1787 41.492C35.1747 40.3669 34.6479 40.413 33.3587 41.1549C32.3359 41.721 31.2587 42.182 30.1434 42.5312C27.5839 43.3863 27.3914 44.5287 27.3786 46.3091C27.3769 46.5349 27.3617 46.7679 27.3454 47.0146C27.3411 47.0771 27.337 47.1408 27.3329 47.2061H22.5867L22.5608 46.6349C22.537 46.1026 22.514 45.5912 22.4881 45.0802C22.415 43.6471 22.1127 43.1283 20.5602 43.0722C18.2347 42.9883 16.2786 42.3065 14.5797 40.9875C13.9333 40.4851 13.1853 40.5271 12.2927 41.1151C11.6272 41.5536 10.9723 42.0065 10.2787 42.4863C10.0244 42.6624 9.76376 42.8424 9.49691 43.0261L6.46299 38.9493C6.65066 38.7918 6.83588 38.6351 7.01867 38.4791C7.54462 38.0322 8.04107 37.61 8.56377 37.2079C9.42624 36.5449 9.49774 36.1555 8.92901 35.2228C7.89746 33.531 6.83209 31.4816 6.75082 29.1085C6.72271 28.2773 6.23586 27.8408 5.30453 27.8108C4.75677 27.793 4.20454 27.7969 3.61767 27.8006C3.40969 27.802 3.19599 27.8036 2.97436 27.8042L2.76762 23.8108C3.06788 23.7791 3.35836 23.7461 3.6413 23.714C4.395 23.6283 5.10796 23.5477 5.81481 23.5149C6.68767 23.474 7.19833 23.0091 7.33277 22.131C7.7247 19.5734 8.44766 17.5912 9.60774 15.8925C9.79735 15.6511 9.90156 15.3537 9.90407 15.0466C9.90657 14.7394 9.80723 14.4401 9.62159 14.1958C9.19408 13.5752 8.76482 12.9566 8.33379 12.3399L7.93799 11.7711L11.824 7.80843C11.9772 7.95808 12.1305 8.1078 12.2838 8.25745C12.7319 8.69561 13.1943 9.14827 13.6577 9.58806C14.5671 10.4501 14.826 10.3321 15.775 9.69498C16.9748 8.88906 18.2586 8.0527 19.6016 7.46086C20.7566 6.95208 21.7896 6.36092 21.7405 4.73745C21.7462 4.39453 21.7924 4.05351 21.8784 3.72151C21.9061 3.59233 21.934 3.45968 21.9599 3.32253H27.3731C27.3743 3.43416 27.3765 3.54696 27.3786 3.66063C27.3863 4.06614 27.3943 4.48518 27.3649 4.89539C27.25 6.49274 27.7835 7.1711 29.2677 7.31457C30.8362 7.46641 32.2079 8.1648 33.7127 9.5799C34.5132 10.3321 34.9553 10.4737 35.8418 9.77002C36.4325 9.30063 36.9801 8.80537 37.5592 8.28027C37.7578 8.10041 37.9583 7.91984 38.1605 7.73847L42.0419 11.8328C41.9504 11.9289 41.8524 12.0307 41.7496 12.1376C41.3507 12.5531 40.8983 13.0242 40.4508 13.517C39.253 14.8368 39.2454 15.3333 40.4023 16.6395C41.6279 17.9877 42.4914 19.6259 42.9117 21.4004C43.1461 22.4265 43.7344 22.9255 44.7631 22.9716C45.2569 22.9934 45.7505 23.0204 46.307 23.05L46.9515 23.0842L47.1805 27.3714H46.5785C46.042 27.3702 45.5578 27.3698 45.0734 27.3736C43.8108 27.3842 43.2625 27.7951 42.9785 28.943Z" fill="black"/>
<path d="M26.8765 12.5683C24.8781 12.3832 22.8643 12.6679 20.9954 13.3998C19.1262 14.1317 17.4535 15.2906 16.1103 16.7843C14.767 18.278 13.7903 20.0652 13.2579 22.0036C12.7255 23.9422 12.6521 25.9783 13.0435 27.9501C14.0674 32.8095 16.5821 35.8834 20.7318 37.3475C21.9552 37.7705 23.242 37.9793 24.5363 37.9652C25.6133 37.9564 26.6874 37.852 27.7463 37.6532C34.5907 36.4266 38.3592 31.6136 38.3561 24.1001V24.0954C38.273 21.745 37.491 19.4728 36.1101 17.5707C33.9354 14.6572 30.8289 12.974 26.8765 12.5683ZM35.1081 27.2573C34.2949 31.3309 31.7301 33.6977 27.2674 34.4926C25.8227 34.7497 23.9277 34.973 22.0825 34.4148C18.8693 33.4422 16.9404 31.1785 16.1859 27.495C16.0678 26.8462 15.9905 26.1907 15.9545 25.5324C15.9313 25.2262 15.9082 24.9217 15.8771 24.6181C15.8714 23.394 16.1124 22.1813 16.5859 21.0528C17.0593 19.9244 17.7553 18.9032 18.6321 18.0507C20.5 16.2481 23.1239 15.3121 26.0028 15.4031C29.1109 15.5052 31.5732 16.625 33.3212 18.7297C35.214 21.0093 35.7986 23.7991 35.1081 27.2573Z" fill="black"/>
</g>
<defs>
<clipPath id="clip0_220_1016">
<rect width="50.3145" height="50" fill="white" transform="translate(0.0625 0.534058)"/>
</clipPath>
</defs>
</svg>
