<svg width="31" height="18" viewBox="0 0 31 18" fill="none" xmlns="http://www.w3.org/2000/svg">
<path d="M14.5271 8.6504C10.9106 8.62112 7.29416 8.59765 3.6777 8.55808C2.95689 8.55003 2.23503 8.49344 1.51712 8.42288C1.39835 8.40997 1.28623 8.36151 1.19545 8.28385C1.10466 8.20619 1.03942 8.10295 1.00826 7.98762C0.949304 7.80296 1.15427 7.54102 1.39907 7.50251C1.63648 7.46518 1.8727 7.40727 2.1113 7.39289C3.63509 7.30057 5.15876 7.16987 6.684 7.1423C9.81759 7.08599 12.9521 7.07174 16.0863 7.06818C19.0599 7.06475 22.0337 7.10194 25.0073 7.1088C25.4847 7.10999 25.9624 7.04984 26.4391 7.00724C26.4707 6.99944 26.4999 6.98381 26.5239 6.9618C26.5479 6.93979 26.566 6.91211 26.5765 6.88128C26.5851 6.80768 26.5634 6.68343 26.5144 6.65705C25.6006 6.16033 24.6981 5.63776 23.7585 5.19446C21.5725 4.16316 19.522 2.89855 17.4728 1.62971C17.1361 1.42118 16.7831 1.20936 16.6473 0.795603C16.6226 0.72029 16.5841 0.591297 16.6155 0.566105C16.7279 0.461274 16.8645 0.385904 17.0132 0.346751C17.1715 0.328067 17.3318 0.353732 17.4764 0.420878C17.9884 0.652751 18.4967 0.894788 18.9949 1.15489C22.5554 3.01383 26.1148 4.87483 29.6731 6.73791C31.0171 7.43695 31.6557 8.11477 30.0424 9.65176C29.5776 10.0948 29.1074 10.5372 28.6019 10.9311C26.2579 12.7601 23.9053 14.5779 21.5441 16.3845C21.2194 16.6175 20.8771 16.8248 20.5201 17.0044C20.2874 17.1308 20.0543 17.0559 19.8533 16.9043C19.6321 16.7375 19.4948 16.2525 19.571 16.0392C19.7405 15.5657 20.0782 15.2183 20.4408 14.9037C21.8369 13.6926 23.2405 12.4903 24.6515 11.2966C25.5685 10.5166 26.495 9.74803 27.4105 8.96642C27.4558 8.92791 27.458 8.80815 27.4397 8.73613C27.4276 8.70497 27.4082 8.67719 27.3831 8.65518C27.358 8.63317 27.3279 8.61759 27.2954 8.60978C26.8169 8.57838 26.3375 8.53842 25.8586 8.54093C22.0813 8.56089 18.304 8.58576 14.5267 8.61557L14.5271 8.6504Z" fill="black"/>
</svg>
