<svg width="56" height="51" viewBox="0 0 56 51" fill="none" xmlns="http://www.w3.org/2000/svg">
<g clip-path="url(#clip0_215_950)">
<path d="M45.5844 16.0543H45.5624C45.2813 16.0565 45.0002 16.0614 44.7194 16.0664H44.6833C44.3333 16.0724 43.9837 16.0786 43.6326 16.0786H43.5313C40.0626 16.0944 36.5985 16.3325 33.1604 16.7913C32.8831 16.8268 32.0397 16.9343 32.002 17.8473C31.9758 18.4955 32.4229 18.953 33.1694 19.0416C33.5399 19.0796 33.9128 19.0876 34.2846 19.0658C35.7046 19.0051 37.1247 18.9423 38.5447 18.8774L38.9236 18.8605C39.902 18.8164 40.8804 18.773 41.8591 18.7303C41.9273 18.7272 41.9969 18.7255 42.0681 18.7246L30.5375 27.6128L28.3769 25.6328C26.8293 24.2128 25.2293 22.7445 23.6454 21.3107C22.6923 20.4484 21.8685 20.4166 20.974 21.2085L20.4332 21.6869C18.3764 23.5075 16.2497 25.3901 14.1777 27.2628C11.8958 29.324 9.64288 31.4117 7.93495 33C7.55273 33.3608 7.21438 33.7654 6.92682 34.2055C6.77828 34.4249 6.71511 34.691 6.74931 34.9538C6.78352 35.2165 6.91273 35.4577 7.11253 35.6317C7.31812 35.8423 7.59878 35.963 7.89312 35.9674C8.08215 35.9654 8.26786 35.9174 8.43411 35.8276L8.57044 35.7569C8.8114 35.6443 9.03898 35.5053 9.24885 35.3419L9.75085 34.9236C10.8896 33.9736 12.0669 32.9906 13.1971 31.9897C15.3729 30.063 17.5803 28.0877 19.7143 26.1771L19.7517 26.1434C20.5764 25.4049 21.4029 24.6654 22.2315 23.9249L22.3333 24.0005C22.4619 24.0919 22.5859 24.1899 22.7044 24.2941L24.0379 25.5289C25.7461 27.1099 27.5124 28.745 29.2339 30.3674C30.1745 31.2544 30.8908 31.3143 31.8747 30.5923C32.0326 30.4765 32.1846 30.3527 32.3403 30.2258L32.3747 30.1978C32.4659 30.1238 32.5566 30.0498 32.6496 29.9776C36.1016 27.3 39.5549 24.6238 43.0091 21.9486C43.1928 21.8065 43.385 21.6711 43.5872 21.5301C43.3476 22.4611 43.1068 23.3919 42.865 24.3227L42.7855 24.6293C42.5256 25.6311 42.2668 26.6326 42.0091 27.6342L41.9793 27.7483C41.8875 28.0452 41.8361 28.3533 41.8271 28.6641C41.8346 29.0018 41.9496 29.3284 42.1553 29.5963C42.361 29.8643 42.6469 30.0595 42.9714 30.154C43.2956 30.2483 43.6417 30.2368 43.9591 30.121C44.2765 30.0051 44.5487 29.7912 44.7361 29.5099C44.9311 29.2066 45.0705 28.871 45.148 28.5187C45.8044 25.4826 46.5798 21.8768 47.3538 18.1539C47.4817 17.5402 47.3868 17.0177 47.0793 16.6428C46.7626 16.2578 46.2458 16.0543 45.5844 16.0543Z" fill="black"/>
<path d="M55.0715 30.8071C54.8792 26.2005 54.6841 22.1772 54.4746 18.5085C54.331 15.9922 54.1263 12.6812 53.8138 9.38295C53.3596 4.57018 49.4885 1.08713 44.3999 0.912238C40.6334 0.782502 36.8008 0.728317 33.0929 0.675895C32.0356 0.661137 30.9622 0.670204 29.9237 0.679013C28.22 0.693551 26.4581 0.708749 24.7343 0.617119C20.8183 0.411172 16.6666 0.583639 11.2761 1.17923C7.76947 1.5669 5.13068 2.59773 2.97055 4.42373C1.19016 5.92857 0.322325 7.6739 0.317919 9.7598C0.316377 10.4314 0.302919 11.112 0.277589 11.783C0.255562 12.3737 0.214827 12.9774 0.176061 13.5611C0.0653442 14.8107 0.03554 16.0661 0.0868471 17.3195C0.120033 17.842 0.153867 18.3646 0.188375 18.8872C0.455776 22.9807 0.732444 27.2131 0.451607 31.3904C0.335748 33.1133 0.367435 34.8706 0.397831 36.5686L0.404446 36.9446C0.455988 39.8593 0.882192 42.4215 1.70796 44.7767C2.59872 47.3182 4.32804 48.8635 6.84808 49.3697C8.40724 49.6941 9.98962 49.8946 11.5804 49.9688C14.5412 50.0897 17.5527 50.1569 20.4653 50.2219C21.6493 50.2486 22.8334 50.2763 24.0175 50.3049H24.0217C24.0614 50.3045 24.0999 50.2915 24.1318 50.2679H25.0697C25.8517 50.2679 26.6345 50.2679 27.418 50.2679L28.6603 50.2699C33.5649 50.28 38.6349 50.29 43.5856 49.514C45.312 49.2433 47.3285 48.8655 49.1975 48.1144C52.9468 46.6076 54.97 43.8289 55.2107 39.856C55.3649 37.3023 55.2488 34.732 55.1354 32.2463C55.1136 31.7668 55.0922 31.2871 55.0715 30.8071ZM3.63817 28.0223C3.5765 25.356 3.44211 22.4882 3.2148 18.9977C3.03551 16.2413 2.92628 12.6074 3.68421 8.92414C3.7018 8.87381 3.70925 8.82055 3.70621 8.76734C3.53 6.69839 5.00819 5.88802 6.57163 5.03031L6.62606 5.00058C8.1428 4.16798 9.82251 3.87855 11.413 3.65322C15.0333 3.17703 18.6827 2.95621 22.3341 2.99243C23.8554 2.99243 25.3559 3.01751 26.8274 3.04857C29.5032 3.10474 32.2239 3.14132 34.8545 3.17679C37.1506 3.2074 39.5241 3.23956 41.8589 3.28428C42.9409 3.29749 44.0206 3.38991 45.0891 3.56073C48.9296 4.2006 51.0541 6.69771 51.2321 10.7823C51.3781 14.1352 51.5125 17.5444 51.6422 20.8424C51.74 23.3184 51.8393 25.7944 51.9407 28.2701C51.9777 29.1629 52.0288 30.0697 52.0781 30.9461C52.1556 32.3228 52.2356 33.7461 52.264 35.1452C52.2975 36.8019 52.2059 38.4952 52.1098 40.0878C51.9689 42.4096 50.618 44.0589 48.0951 44.9895C46.5499 45.5322 44.953 45.9135 43.3294 46.1274C37.8611 46.9424 32.2486 46.906 26.8217 46.8717L26.1045 46.8671C25.8233 46.8653 25.542 46.866 25.2605 46.8671H24.8598C24.8244 46.8671 24.7896 46.8754 24.7578 46.8913C24.7263 46.9071 24.6988 46.9303 24.6779 46.9587C23.4885 46.9283 22.299 46.899 21.1095 46.8706C17.6368 46.7851 14.0463 46.6968 10.5161 46.5809C9.60669 46.5261 8.70291 46.401 7.81282 46.2065L7.65004 46.1754C6.15797 45.8891 5.15954 44.9679 4.68288 43.4351C3.95883 41.0393 3.59672 38.5485 3.60843 36.0457C3.60051 34.9003 3.61678 33.7367 3.63242 32.6096C3.65158 31.106 3.67341 29.5519 3.63817 28.0223Z" fill="black"/>
</g>
<defs>
<clipPath id="clip0_215_950">
<rect width="55.2863" height="50" fill="white" transform="translate(0 0.457275)"/>
</clipPath>
</defs>
</svg>
