<svg width="52" height="51" viewBox="0 0 52 51" fill="none" xmlns="http://www.w3.org/2000/svg">
<path d="M43.932 15.368V23.1255C45.5455 23.2437 47.0314 23.3437 48.5154 23.4649C49.2245 23.5229 49.9684 23.5124 50.6236 23.7414C51.0373 23.8861 51.552 24.3943 51.588 24.7802C51.6227 25.1542 51.1827 25.7059 50.8047 25.947C50.4307 26.185 49.8736 26.1641 49.3927 26.2008C47.6033 26.3375 45.8126 26.451 43.9437 26.5786V32.7722C45.6453 32.9611 47.3811 33.1498 49.1157 33.3491C49.5618 33.4002 50.0033 33.4887 50.448 33.5517C51.0697 33.6407 51.5405 33.9397 51.5822 34.5978C51.6299 35.3501 51.0609 35.65 50.4471 35.7637C49.7077 35.8842 48.9625 35.9655 48.2146 36.0074C46.8013 36.1168 45.3861 36.2053 43.8541 36.3107C43.8196 36.5381 43.764 36.9319 43.6999 37.3239C43.3961 39.2117 42.3982 40.6207 40.612 41.2947C39.3285 41.7788 37.955 42.033 36.6178 42.3664C36.1917 42.4496 35.7617 42.5109 35.3294 42.5502C35.3294 44.0047 35.3312 45.4122 35.3294 46.82C35.328 47.4925 35.3942 48.1763 35.2961 48.8352C35.1303 49.9477 34.3279 50.611 33.4027 50.5266C32.502 50.4442 31.7533 49.6136 31.804 48.5314C31.8605 47.2993 32.0742 46.0744 32.2149 44.8462C32.2962 44.141 32.371 43.4351 32.4626 42.5993H25.6705C25.7428 44.0973 25.8356 45.6507 25.8847 47.2054C25.9301 47.8362 25.8928 48.4701 25.7739 49.0912C25.7127 49.4496 25.5209 49.7725 25.2356 49.9978C24.9503 50.2231 24.5916 50.3347 24.2288 50.3111C23.8839 50.3201 23.548 50.2004 23.2864 49.9753C23.0249 49.7502 22.8566 49.4359 22.8141 49.0934C22.7078 48.3577 22.6878 47.612 22.7544 46.8715C22.8522 45.4185 23.0163 43.9701 23.1669 42.3707H16.4472C16.4352 42.6184 16.4008 42.9724 16.4042 43.3261C16.4199 44.9009 16.4791 46.4761 16.4593 48.0502C16.442 49.4154 15.7708 50.2841 14.8636 50.2519C13.9465 50.2195 13.3503 49.3346 13.4527 47.9431C13.5653 46.412 13.7905 44.8901 13.9616 43.3635C14.0104 42.9264 14.0422 42.4873 14.0859 42.0028C13.5315 41.8853 13.058 41.8002 12.5926 41.6833C10.8906 41.2535 9.72918 40.2632 9.33379 38.4948C9.12146 37.5457 8.9116 36.5962 8.69702 35.6478C8.63375 35.3677 8.55855 35.0903 8.54211 35.0252C6.4312 35.0252 4.45246 35.0268 2.47395 35.023C2.21123 35.0211 1.94879 35.0055 1.68768 34.9764C0.699215 34.8714 0.149138 34.4067 0.131575 33.6722C0.114462 32.9517 0.639772 32.4295 1.63635 32.3025C2.67638 32.1699 3.72631 32.1141 4.77242 32.0296C5.88473 31.9396 6.99727 31.8567 8.15709 31.7669C8.04721 29.5425 7.9389 27.3494 7.82677 25.0795C6.98713 25.0795 6.17655 25.0795 5.36596 25.0795C4.27909 25.0809 3.19155 25.1072 2.10581 25.0727C1.69563 25.0503 1.29197 24.9603 0.911093 24.8064C0.332197 24.5837 -0.0915624 24.1021 0.116039 23.5036C0.311593 23.0483 0.671992 22.6838 1.12499 22.4831C1.58028 22.2895 2.15692 22.3931 2.67863 22.3408C4.42162 22.1652 6.16348 21.9779 8.05081 21.7799V16.0221C6.15943 15.8309 4.1978 15.633 2.2355 15.4339C2.04813 15.4247 1.86175 15.401 1.678 15.3632C1.06308 15.2011 0.540024 14.9273 0.524938 14.1847C0.509402 13.4192 1.03246 13.0956 1.66742 13.0472C2.78513 12.9617 3.91162 12.9418 5.03294 12.9625C6.22788 12.985 7.42147 13.0859 8.68441 13.1564C9.31172 11.6339 9.57674 9.78502 11.2144 8.95867C12.695 8.21135 14.3216 7.75179 16.0286 7.11075C16.1792 5.72892 16.3571 4.10031 16.5336 2.47238C16.6687 1.23398 17.031 0.706424 17.7308 0.73547C18.4063 0.76339 18.7621 1.3308 18.8488 2.55682C18.9512 4.0071 19.0386 5.45828 19.1343 6.93671C20.1554 6.93671 21.118 6.95269 22.0796 6.93198C23.0129 6.91194 23.9451 6.85451 24.8361 6.81511C24.9804 5.09486 25.1121 3.4345 25.2625 1.77594C25.315 1.1975 25.4375 0.594976 26.1594 0.541612C26.9427 0.48352 27.2021 1.11509 27.2811 1.71042C27.5013 3.37078 27.6414 5.04284 27.8308 6.89617C28.5896 6.92904 29.547 6.98624 30.505 7.0074C31.4372 7.02812 32.3698 7.01191 33.3527 7.01191C33.4515 5.56253 33.5373 4.15727 33.6485 2.75405C33.6897 2.23438 33.701 1.68137 33.8962 1.21551C33.9785 1.04345 34.0991 0.892587 34.2489 0.7745C34.3986 0.656413 34.5735 0.574277 34.7599 0.534411C35.0772 0.517524 35.4354 0.862243 35.7336 1.10227C35.8553 1.24655 35.9234 1.42847 35.9263 1.61721C36.1064 3.36291 36.2724 5.10996 36.4588 7.02543C40.2999 6.73677 42.9784 8.27935 43.3436 12.4841C45.324 12.4841 47.1888 12.4753 49.0536 12.4899C49.5714 12.494 50.1515 12.439 50.5896 12.6475C50.9929 12.8403 51.4772 13.3392 51.4977 13.7258C51.5189 14.1251 51.108 14.6763 50.7308 14.9307C50.3667 15.1761 49.8076 15.1797 49.3289 15.1998C47.5369 15.277 45.743 15.3153 43.932 15.368ZM40.673 26.2037H40.8745C40.8745 24.9298 40.9128 23.6547 40.8668 22.3823C40.7543 19.2793 40.723 16.1678 40.4334 13.079C40.1594 10.1572 39.7322 9.85663 36.7247 9.78885C31.7052 9.67627 26.6824 9.51866 21.6642 9.59882C19.1363 9.63935 16.6052 10.0921 14.0969 10.4918C12.7009 10.7143 11.7207 11.5674 11.5611 13.1037C11.4839 13.8456 11.3634 14.586 11.338 15.3297C11.267 17.3881 11.2452 19.4486 11.1867 21.5077C11.0516 26.306 10.9966 31.0997 12.0344 35.8268C12.5356 38.1097 12.577 38.2586 14.8586 38.3513C21.5588 38.6251 28.2626 38.8208 34.9657 38.9847C36.0891 38.9765 37.2077 38.836 38.2982 38.5661C40.269 38.1383 40.6448 37.6607 40.6637 35.6462C40.6946 32.4986 40.673 29.3511 40.673 26.2037Z" fill="black"/>
<path d="M16.5433 24.7125C16.5433 22.7653 16.5239 20.8171 16.5489 18.8708C16.5714 17.0855 17.1249 16.3659 18.9048 15.9874C20.0026 15.7518 21.1203 15.6216 22.2429 15.5985C25.2387 15.5461 28.236 15.5785 31.2327 15.5816C31.4951 15.5835 31.757 15.602 32.017 15.637C33.7787 15.8642 34.7027 16.5559 35.0295 18.3088C35.3853 20.1434 35.5863 22.0048 35.6304 23.8731C35.6678 26.299 35.4426 28.7285 35.3636 31.1573C35.3255 32.3259 34.6667 32.9521 33.6298 33.1973C32.6494 33.4374 31.6521 33.603 30.6466 33.6927C26.9853 33.9854 23.3133 34.1655 19.6587 33.6744C17.3537 33.3651 16.7486 32.4952 16.8097 30.2132C16.8587 28.3813 16.8196 26.5469 16.8196 24.7134L16.5433 24.7125ZM32.8296 30.6174C32.8296 28.5265 32.8177 26.4744 32.8328 24.4231C32.8481 22.3428 32.9573 20.2576 32.4986 18.1823C31.4376 18.1131 30.4703 17.9927 29.5039 17.9976C26.4379 18.0136 23.3707 18.0391 20.3067 18.1395C19.0802 18.1798 19.0208 18.289 19.0825 19.4839C19.2797 23.2908 19.5179 27.0945 19.7393 30.8824C21.2325 31.3104 28.9807 31.1668 32.8296 30.6174Z" fill="black"/>
</svg>
